<svg width="23" height="22" viewBox="0 0 23 22" fill="none" xmlns="http://www.w3.org/2000/svg">
<path d="M20.1721 8.41256C20.1144 8.24274 20.0083 8.09353 19.8668 7.98335C19.7253 7.87316 19.5547 7.80681 19.3759 7.79251L14.1468 7.377L11.8839 2.36798C11.8119 2.20665 11.6947 2.06963 11.5464 1.97344C11.3982 1.87726 11.2253 1.82602 11.0486 1.82593C10.8719 1.82583 10.699 1.87687 10.5507 1.9729C10.4023 2.06892 10.285 2.20582 10.2127 2.36707L7.94992 7.377L2.72077 7.79251C2.54508 7.80642 2.37712 7.87066 2.23698 7.97754C2.09684 8.08442 1.99047 8.2294 1.93057 8.39516C1.87067 8.56091 1.8598 8.74041 1.89925 8.91218C1.9387 9.08395 2.02679 9.24072 2.15301 9.36373L6.01731 13.1308L4.65063 19.0488C4.60914 19.2279 4.62244 19.4154 4.68881 19.5869C4.75518 19.7584 4.87156 19.9059 5.02285 20.0105C5.17414 20.115 5.35334 20.1716 5.53722 20.173C5.72109 20.1744 5.90114 20.1205 6.054 20.0183L11.0483 16.6888L16.0427 20.0183C16.1989 20.1221 16.3832 20.1755 16.5707 20.1713C16.7582 20.1672 16.9399 20.1058 17.0914 19.9953C17.243 19.8848 17.3571 19.7306 17.4183 19.5533C17.4796 19.3761 17.4851 19.1843 17.4341 19.0039L15.7565 13.1336L19.9171 9.38941C20.1895 9.14359 20.2895 8.76019 20.1721 8.41256Z" fill="#F3CD03"/>
</svg>
